# ProBuilder 5.0.3
# https://unity3d.com/unity/features/worldbuilding/probuilder
# 01.11.2021 10.36.40

mtllib ./Caltrop.mtl
o Caltrop

g Cone
v -1.817352 -0.7697594 1.43797
v -1.094237 -0.7697594 1.890506
v -1.222615 -0.2394185 1.29042
v -0.6784223 -0.7302406 0.1663239
v 0.07157765 -0.7302406 0.5993369
v -0.1600746 -0.7302406 0.1343129
v 1.817349 -0.7623307 0.5453923
v 1.817349 -0.7623307 -0.27929
v 1.395616 -0.408003 0.1343129
v 0.08992535 -0.7302406 -0.2986999
v 0.07221948 -0.7445954 -1.890507
v -0.6459011 -0.7445954 -1.693148
v -0.2139791 -0.3387145 -1.279332
v -0.1784223 0.7697594 0.1663239
v -0.2139295 -0.338731 0.01644637
v -0.6458515 -0.7259641 0.01644637
v 0.07226907 -0.7259641 -0.1809118
v -0.2284521 -0.3790823 0.2529786
v 0.05691873 -0.7166907 0.6161454
v -0.6661962 -0.7166907 0.1636098
v -0.05569018 -0.4080194 0.1343129
v 0.09430943 -0.7514988 -0.27929
v 0.09430943 -0.7514988 0.5453923

vt 0 0
vt 1.732051 5.960464E-08
vt 0.8660254 1.581139
vt -0.6784223 0.1663239
vt 0.07157765 0.5993369
vt -0.1600746 0.1343129
vt 0.08992535 -0.2986999
vt 0.2308789 0.7733309
vt 0.6870528 -0.740573
vt 0.2019116 -0.3454343
vt 0.5959747 -0.7530225
vt -0.6637707 0.1906464
vt 0.1044251 -0.2746282
vt -0.6312913 0.04068803
vt 0.08668733 -0.1570324
vt -0.3085143 -0.7299694
vt 0.1902114 0.7831501
vt -0.1894116 -0.7256554
vt 0.04698227 -0.3082852
vt 0.3854026 0.0164502
vt 0.965494 0.0164502
vt 0.3854285 -1.279328
vt 0.977968 -1.693144
vt -0.6480229 0.008555467
vt 0.07009446 -0.1888144
vt -0.6481283 -1.701141
vt 0.06998906 -1.898511
vt 0.1803184 -0.6266509
vt -0.0147069 -0.1441837
vt 1.889857 -0.6498643
vt 1.281029 -0.1504238
vt 0 1.505278
vt 0.4838775 0
vt 0.02658923 0.352394
vt 0.4855568 0.01164168
vt 0.7164576 0.4865066
vt 0.6984473 0.5053917
vt 0.007672429 0.005133241
vt 0.471626 1.509162
vt 0.01243359 0.01363277
vt 0.3956592 0.3744592
vt 0.419456 0
vt 0 0.3890535
vt 1.340847 1.111391
vt 0.9550111 1.80994
vt 1.874894 0.4526957
vt 1.151879 0
vt 0.7230147 1.727507
vt 0 1.274811
vt 0.5512668 0
vt 0 0.09844287
vt 1.541947 1.403753
vt 0.753574 1.318421
vt -0.2063673 0.7785404
vt 0.3117598 -0.7280456
vt -0.1440803 -0.4044096
vt 0.2941126 -0.7500697
vt -0.3004744 -0.7308382
vt 0.5977498 -0.7308382
vt -0.2811581 -0.7526271
vt 0.5433521 -0.7563223
vt -0.5491488 -0.7689835
vt -0.2127226 0.7759494
vt -0.4908455 -0.7908785
vt -0.144889 -0.3932348
vt 0.05569481 -0.157347
vt -0.09430092 -0.6949775
vt -1.395612 -0.157347
vt -1.81734 -0.7019103
vt 0.09903178 -0.27929
vt 0.09903178 0.5453923
vt 1.822105 -0.27929
vt 1.822105 0.5453923
vt -0.09903178 0.8996788
vt 0.05312412 0.3645967
vt -1.822105 0.8996788
vt -1.398153 0.3587458

vn -0.4080552 0.6390121 0.6520388
vn 0 -1 0
vn 0.6432688 0.7656404 0
vn -0.1643309 0.7845104 -0.5979455
vn -0.4056553 0.1352184 -0.9039689
vn -0.5340672 0.4370756 -0.5134261
vn -0.6624789 0.7389327 -0.1228832
vn -0.0198698 -0.9992634 -0.0328304
vn -0.01513428 -1.677871E-05 -0.03533402
vn -0.01039876 0.9992298 -0.03783764
vn -0.9810647 -0.1313989 -0.1422897
vn -0.7069609 0.001494966 -0.5168394
vn -0.4328569 0.1343888 -0.8913891
vn -0.6675381 0.7445757 3.500047E-05
vn -0.6741258 0.7385411 -0.00396408
vn -0.6807134 0.7325065 -0.007963159
vn 0.002994857 -0.9999362 0.01089729
vn 0.8025839 0.5965036 -0.006524018
vn 0.8099123 0.5864002 -0.003273989
vn 0.8172407 0.5762966 -2.396031E-05
vn -0.7096556 0.0836706 0.6995629
vn 0.005760133 0.3862478 0.386611
vn 0.7211758 0.6888249 0.07365899
vn -0.2631981 -0.8502396 0.4558721
vn -0.3541505 -0.1530794 0.5835551
vn -0.4451028 0.5440808 0.711238
vn 0.3300618 -0.1100206 0.9375259
vn 0.03450873 -0.01305784 0.9495997
vn -0.2610443 0.08390491 0.9616735
vn 0.4862308 0.7968259 0.3586754
vn 0.5037947 0.7442553 0.4292166
vn 0.5213585 0.6916846 0.4997577
vn 0.01664092 -0.9995079 -0.02659083
vn -0.4991893 0.7582576 -0.4193512
vn -0.5472296 0.6243656 -0.5279088
vn -0.59527 0.4904734 -0.6364664
vn 0.9626277 0.09340276 0.2542123
vn 0.9569103 0.1920551 0.1788787
vn 0.9511927 0.2907074 0.1035451
vn -0.97544 -0.2193619 -0.01992911
vn -0.8292383 -0.4748731 -0.009964557
vn -0.6830366 -0.7303842 0
vn 0.9248902 0.2394205 0.2953912
vn 0.9421848 0.1732443 0.01737304
vn 0.9594793 0.1070681 -0.2606452
vn -8.720265E-06 0.7693068 -0.6388795
vn 0.002390253 0.7655668 -0.6433213
vn 0.004789226 0.7618268 -0.647763
vn -0.006286378 -0.9999802 0
vn 0.00482954 0.7682397 0.6401441
vn 0.002410477 0.7628459 0.6465174
vn -8.585889E-06 0.7574521 0.6528907

usemtl shuriken
f 1/1/1 2/2/1 3/3/1
f 6/6/2 5/5/2 4/4/2
f 7/1/3 8/2/3 9/3/3
f 6/6/2 10/7/2 5/5/2
f 11/1/4 12/2/4 13/3/4
f 6/6/2 4/4/2 10/7/2
f 16/11/7 4/9/6 14/8/5
f 14/8/5 15/10/6 16/11/7
f 17/15/10 10/13/9 4/12/8
f 4/12/8 16/14/9 17/15/10
f 15/19/13 14/17/12 10/16/11
f 10/16/11 17/18/12 15/19/13
f 12/23/16 16/21/15 15/20/14
f 15/20/14 13/22/15 12/23/16
f 11/27/17 17/25/17 16/24/17
f 16/24/17 12/26/17 11/27/17
f 13/31/20 15/29/19 17/28/18
f 17/28/18 11/30/19 13/31/20
f 19/35/23 5/33/22 14/32/21
f 14/32/21 18/34/22 19/35/23
f 20/38/26 4/1/25 5/36/24
f 5/36/24 19/37/25 20/38/26
f 18/41/29 14/39/28 4/1/27
f 4/1/27 20/40/28 18/41/29
f 2/45/32 19/43/31 18/42/30
f 18/42/30 3/44/31 2/45/32
f 1/49/33 20/47/33 19/46/33
f 19/46/33 2/48/33 1/49/33
f 3/53/36 18/51/35 20/50/34
f 20/50/34 1/52/35 3/53/36
f 22/57/39 10/55/38 14/54/37
f 14/54/37 21/56/38 22/57/39
f 23/61/42 5/59/41 10/58/40
f 10/58/40 22/60/41 23/61/42
f 21/65/45 14/63/44 5/62/43
f 5/62/43 23/64/44 21/65/45
f 8/69/48 22/67/47 21/66/46
f 21/66/46 9/68/47 8/69/48
f 7/73/49 23/71/49 22/70/49
f 22/70/49 8/72/49 7/73/49
f 9/77/52 21/75/51 23/74/50
f 23/74/50 7/76/51 9/77/52

