# ProBuilder 5.0.3
# https://unity3d.com/unity/features/worldbuilding/probuilder
# 28.11.2021 17.42.43

mtllib ./Icicle2.mtl
o Icicle2

g Cone
v -0.5 -1.423859 -0.004978441
v -0.25 -1.423859 0.4280344
v 0 1.794258 -0.05117627
v -0.5 -1.794257 0.004978303
v -0.25 -1.794256 0.4379912
v 0 -1.794257 0.004978303
v 0.25 -1.423859 0.4280342
v 0.25 -1.794256 0.4379911
v 0.5 -1.423859 -0.0049785
v 0.5 -1.794257 0.004978243
v 0.25 -1.423859 -0.4379913
v 0.25 -1.794257 -0.4280346
v -0.25 -1.423859 -0.4379913
v -0.25 -1.794257 -0.4280346

vt 0 0
vt 1 0
vt 0.5000001 1.732051
vt -0.5 0.004976327
vt -0.25 0.4379893
vt 0 0.004976327
vt 0.25 0.4379891
vt 0.5 0.004976267
vt 0.25 -0.4280356
vt -0.25 -0.4280356
vt -0.2543117 -1.417878
vt 0.2456885 -1.417878
vt -0.2456889 -1.788309
vt 0.2543113 -1.788309
vt -0.2500001 -1.434847
vt 0.2499999 -1.434847
vt -0.2500001 -1.805378
vt 0.2499999 -1.805378
vt -0.2543114 -1.429517
vt 0.2456887 -1.429516
vt -0.2456886 -1.799947
vt 0.2543116 -1.799947
vt -0.2456886 -1.429516
vt 0.2543115 -1.429517
vt -0.2543114 -1.799947
vt 0.2456887 -1.799948
vt -0.2456884 -1.417878
vt 0.2543116 -1.417878
vt -0.2543112 -1.788309
vt 0.2456889 -1.788309
vt -0.25 -1.411576
vt 0.25 -1.411576
vt -0.25 -1.782107
vt 0.25 -1.782107

vn -0.9881452 0.1535207 -0.0005412214
vn -0.4933578 0.1654869 0.8539392
vn 2.235123E-07 0.9999752 -0.007049578
vn 0 -1 1.101208E-06
vn 0.493358 0.1654869 0.8539391
vn 0.9881452 0.1535207 -0.0005412386
vn 0.4947527 0.1414982 -0.857437
vn -0.4947527 0.1414982 -0.8574369
vn -0.8659472 -0.01343929 -0.4999547
vn 2.383325E-07 0.02687189 0.9996389
vn -0.8659472 0.01343941 0.4999547
vn 0.8659472 0.01343958 0.4999548
vn 0.8659472 -0.01343941 -0.4999547
vn 0 -0.02687131 -0.9996389

usemtl Frost
f 1/1/1 2/2/2 3/3/3
f 6/6/4 5/5/4 4/4/4
f 2/1/2 7/2/5 3/3/3
f 6/6/4 8/7/4 5/5/4
f 7/1/5 9/2/6 3/3/3
f 6/6/4 10/8/4 8/7/4
f 9/1/6 11/2/7 3/3/3
f 6/6/4 12/9/4 10/8/4
f 11/1/7 13/2/8 3/3/3
f 6/6/4 14/10/4 12/9/4
f 13/1/8 1/2/1 3/3/3
f 6/6/4 4/4/4 14/10/4
f 4/14/9 1/12/9 13/11/9
f 13/11/9 14/13/9 4/14/9
f 8/18/10 7/16/10 2/15/10
f 2/15/10 5/17/10 8/18/10
f 5/22/11 2/20/11 1/19/11
f 1/19/11 4/21/11 5/22/11
f 10/26/12 9/24/12 7/23/12
f 7/23/12 8/25/12 10/26/12
f 12/30/13 11/28/13 9/27/13
f 9/27/13 10/29/13 12/30/13
f 14/34/14 13/32/14 11/31/14
f 11/31/14 12/33/14 14/34/14

