# ProBuilder 5.0.3
# https://unity3d.com/unity/features/worldbuilding/probuilder
# 03.10.2021 11.37.35

mtllib ./Projectile_1.mtl
o Projectile 1

g Projectile 1
v 0.2413177 0.9966421 0.9768286
v 0.2413177 2.986018 0.9768286
v 0.4913177 0.9966421 1.409841
v 0.4913177 2.986018 1.409842
v 0.9913177 0.9966421 1.409841
v 0.9913177 2.986018 1.409842
v 1.241318 0.9966421 0.9768285
v 1.241318 2.986018 0.9768286
v 0.9913177 0.9966421 0.5438159
v 0.9913177 2.986018 0.5438156
v 0.4913178 0.9966421 0.5438159
v 0.4913177 2.986018 0.5438156
v 0.7413177 0.9966421 0.9768286
v 0.7413177 3.996642 0.9768286

vt 0.9666173 0.9966421
vt 0.9666173 2.986018
vt 1.466617 0.9966421
vt 1.466617 2.986018
vt 0.4913177 0.9966423
vt 0.4913177 2.986018
vt 0.9913177 0.9966423
vt 0.9913177 2.986018
vt -0.7252997 0.9966422
vt -0.7252998 2.986018
vt -0.2252996 0.9966422
vt -0.2252996 2.986018
vt -1.466617 0.9966421
vt -1.466617 2.986018
vt -0.9666173 0.9966421
vt -0.9666171 2.986018
vt -0.9913177 0.9966421
vt -0.9913177 2.986018
vt -0.4913178 0.9966421
vt -0.4913177 2.986018
vt 0.2252994 0.9966421
vt 0.2252992 2.986018
vt 0.7252994 0.9966421
vt 0.7252994 2.986018
vt 0.2413177 0.9768286
vt 0.7413177 0.9768286
vt 0.4913177 1.409841
vt 0.9666173 2.634646
vt 1.216617 3.734128
vt 1.466617 2.634646
vt 0.9913177 1.409841
vt 0.4913177 2.189451
vt 0.7413177 3.288933
vt 0.9913177 2.189451
vt 1.241318 0.9768285
vt -0.7253001 2.128964
vt -0.4752997 3.228446
vt -0.2252999 2.128964
vt 0.9913177 0.5438159
vt -1.466617 2.513671
vt -1.216617 3.613154
vt -0.9666169 2.513671
vt 0.4913178 0.5438159
vt -0.9913177 2.958866
vt -0.7413177 4.058349
vt -0.4913177 2.958866
vt 0.2252994 3.019353
vt 0.4752997 4.118836
vt 0.7252997 3.019353

vn -1 -2.478864E-08 3.441276E-08
vn -0.5000001 -8.649135E-08 0.8660253
vn 0.5000001 -1.037896E-07 0.8660254
vn 1 -1.29737E-08 -1.37651E-07
vn 0.5000001 -8.965715E-08 -0.8660254
vn -0.5 -1.187704E-07 -0.8660254
vn -0.5000001 -9.398173E-08 -0.8660254
vn 0 -1 0
vn -0.796035 0.3938333 0.4595908
vn 0 0.3938334 0.9191819
vn 0.796035 0.3938333 0.4595908
vn 0.796035 0.3938333 -0.4595908
vn 0 0.3938334 -0.9191819
vn -0.796035 0.3938333 -0.4595908

usemtl ProBuilderDefault
f 1/25/8 13/26/8 3/27/8
f 3/27/8 13/26/8 5/31/8
f 5/31/8 13/26/8 7/35/8
f 7/35/8 13/26/8 9/39/8
f 9/39/8 13/26/8 11/43/8
f 11/43/8 13/26/8 1/25/8
f 4/30/9 14/29/9 2/28/9
f 6/34/10 14/33/10 4/32/10
f 8/38/11 14/37/11 6/36/11
f 10/42/12 14/41/12 8/40/12
f 12/46/13 14/45/13 10/44/13
f 2/49/14 14/48/14 12/47/14
f 4/4/2 2/2/1 1/1/1
f 1/1/1 3/3/2 4/4/2
f 6/8/3 4/6/2 3/5/2
f 3/5/2 5/7/3 6/8/3
f 8/12/4 6/10/3 5/9/3
f 5/9/3 7/11/4 8/12/4
f 10/16/5 8/14/4 7/13/4
f 7/13/4 9/15/5 10/16/5
f 12/20/7 10/18/5 9/17/5
f 9/17/5 11/19/6 12/20/7
f 2/24/1 12/22/7 11/21/6
f 11/21/6 1/23/1 2/24/1

